<svg height="512" viewBox="0 0 58 58" width="512" xmlns="http://www.w3.org/2000/svg"><g id="Page-1" fill="none" fill-rule="evenodd"><g id="020---Futuristic-Bot" fill-rule="nonzero" transform="translate(-1)"><path id="Shape" d="m46.56 48.09c-4.03 6.07-9.95 9.91-16.56 9.91s-12.53-3.84-16.56-9.91l-5.36-21.49c.92-14.9 10.38-26.6 21.92-26.6s21 11.7 21.92 26.6z" fill="#3b96d2"/><path id="Shape" d="m38 43v13.02c-5.0066499 2.6399332-10.9933501 2.6399332-16 0v-13.02c0-4.418278 3.581722-8 8-8s8 3.581722 8 8z" fill="#2980b9"/><path id="Shape" d="m44 20c0 7.732-6.268 8-14 8s-14-.268-14-8c0-7.7319865 6.2680135-14 14-14s14 6.2680135 14 14z" fill="#65dcb8"/><path id="Shape" d="m30 29c-7.031 0-15 0-15-9 0-8.2842712 6.7157288-15 15-15s15 6.7157288 15 15c0 9-7.969 9-15 9zm0-22c-7.1762751.00826602-12.991734 5.8237249-13 13 0 6.31 4.163 7 13 7s13-.69 13-7c-.008266-7.1762751-5.8237249-12.99173398-13-13z" fill="#ebeff0"/><rect id="Rectangle-path" fill="#464f5d" height="10" rx="2" width="4" x="22" y="13"/><rect id="Rectangle-path" fill="#464f5d" height="10" rx="2" width="4" x="34" y="13"/><path id="Shape" d="m15.65 40.95-.03.21c-.3924178 2.4021525-1.1265232 4.7357997-2.18 6.93-1.94 3.9-4.69 6.29-7.31 5.86-3.7-.59-5.8-6.65-4.94-13.8z" fill="#285680"/><path id="Shape" d="m58.81 40.15c.86 7.15-1.24 13.21-4.94 13.8-2.62.43-5.37-1.96-7.31-5.86-1.0534768-2.1942003-1.7875822-4.5278475-2.18-6.93l-.03-.21z" fill="#285680"/><g fill="#2980b9"><path id="Shape" d="m16 37c-.0216438 1.323364-.1386133 2.6434486-.35 3.95-2.2744421 1.4629841-4.9487773 2.1796361-7.65 2.05-2.58050594.1079349-5.07557135-.9362555-6.81-2.85.05-.43.12-.87.19-1.31 1-5.9 3.72-10.63 6.7-12.24.84156177-.492199 1.82460201-.6859883 2.79-.55 3.2.52 5.2 5.1 5.13 10.95z"/><path id="Shape" d="m58.81 40.15c-1.7344287 1.9137445-4.2294941 2.9579349-6.81 2.85-2.7012227.1296361-5.3755579-.5870159-7.65-2.05-.2113867-1.3065514-.3283562-2.626636-.35-3.95-.07-5.85 1.93-10.43 5.13-10.95.965398-.1359883 1.9484382.057801 2.79.55 2.98 1.61 5.7 6.34 6.7 12.24.07.44.14.88.19 1.31z"/></g></g></g></svg>