<svg id="Layer_1" enable-background="new 0 0 53 53" height="512" viewBox="0 0 53 53" width="512" xmlns="http://www.w3.org/2000/svg"><g id="_x33_5"><g><g><g><g><g><g><g><g><path d="m33.0084953 4.0983505-17.3599844 46.3099976-2.5999756-1.5c-.2300415-.1400146-.3800049-.4299927-.3800049-.8400269l-.1000366-34.1099854c0-.8400269.5800171-1.8500366 1.3100586-2.2700195 2.7199717-1.7799683 5.4099741-3.4500122 8.0599985-4.9699707 2.5499878-1.4800415 5.0699463-2.8300173 7.539978-4.0400391.3699951-.2099609.7000122-.2299805.9400024-.0899658z" fill="#9ea9c9"/></g></g></g><g><g><g><path d="m24.5331554 8.2189465c2.5542202-1.4747043 5.0706806-2.8233814 7.5470486-4.0335994.7245979-.4183476 1.3136559-.0826612 1.3160172.7499595l.0967064 34.1117516c.0023613.83218-.5828705 1.846283-1.3074722 2.2646294-2.6319599 1.7339287-5.2523003 3.3548355-7.8598099 4.8602829-2.5941715 1.4977455-5.1756287 2.8812485-7.7452145 4.1492844-.7245989.4183464-1.3136587.082222-1.3160172-.749958l-.0967073-34.1117516c-.0023603-.8326206.5828724-1.8462849 1.3074713-2.2646322 2.7223339-1.7834055 5.4104099-3.4473679 8.0579776-4.9759666z" fill="#4c5c75"/></g></g></g></g><g><g><path d="m32.8497047 39.288353c0 .4899902-.3499756 1.1099854-.7699585 1.3499756l-15.6000347 9.0100098c-.1099854.0599976-.2199707.0999756-.2999878.0999756-.250001 0-.2799692-.289978-.2799692-.4199829l-.0100098-3.2700195-.0300293-10.6099854-.0499878-20.2399902c-.0100098-.4799805.3500376-1.0900269.7700205-1.3500366l2.6300049-1.5099487.0799561.1999512c.1300049.3099976.3900146.4900513.710022.4900513.1900024 0 .3800049-.0599976.5700073-.1700439l7.6300049-4.4099731c.4899902-.2800293.9199829-.8599854 1.0700073-1.4700317l.1400146-.5299683 2.7699566-1.6099854c.1099854-.0599976.2000122-.0900269.2900391-.0900269.25 0 .289978.2999878.289978.4199829l.0499878 20.4800415.0300293 10.6199951z" fill="#fff"/></g></g><g><g><g><g><ellipse cx="21.001" cy="11.546" fill="#4c5c75" rx=".51" ry=".295" transform="matrix(.502 -.865 .865 .502 .466 23.903)"/></g></g></g><g><g><g><path d="m22.588316 10.2138472c.1995125-.1151886.3622417-.0229063.3628922.2068014.0006504.2292662-.1610241.509284-.3605347.6244717-.1999054.1154156-.3626366.0226927-.363287-.2065735-.0006504-.2297068.1610241-.5092841.3609295-.6246996z" fill="#9ea9c9"/></g></g></g><g><g><g><path d="m27.7127228 7.3690414.0008526.6454325-4.0440216 2.3348169-.0008526-.6454324z" fill="#9ea9c9"/></g></g></g></g></g><g><g><g><path d="m30.3173485 4.4043474c-.0347652.0556474-.097374.104291-.1738625.1460161-.3824844.2225471-1.00144.2225471-1.3769646 0-.0765324-.0417252-.1321373-.0903687-.1808224-.1460161-.194746-.2086248-.1321373-.4728971.1738605-.6537192.3755245-.2225473 1.001442-.2225473 1.3839264 0 .305998.1738611.3685647.438133.1738626.6537192z" fill="#fff"/></g></g><g><g><path d="m30.3173485 4.4043474c-.0347652.0556474-.097374.104291-.1738625.1460161-.3824844.2225471-1.00144.2225471-1.3769646 0-.0765324-.0417252-.1321373-.0903687-.1808224-.1460161.0417252-.0556474.0973301-.1043339.1738605-.1460586.3755245-.2155862 1.001442-.2155862 1.3839264 0 .0764886.0417247.1390973.0904112.1738626.1460586z" fill="#1d2943"/></g></g></g><g><g><g><path d="m14.6543694 18.6893749-.0074387 2.8378887c-.0014896.180069-.0639896.3050785-.1666718.3645973l-.4276237.2494411c.1011934-.0580387.1651821-.1830482.1651821-.3631077l.0089293-2.8378983c0-.3571587-.2500076-.7916946-.5625153-.9717655-.1562624-.0892849-.2961493-.0967236-.3988314-.0401726l.429122-.2509308c.1026821-.056551.2425594-.0491028.3988218.0401821.311018.1800692.5625153.6160967.5610257.9717657z" fill="#111d33"/></g></g><g><g><path d="m13.664506 17.9690838c-.1558237-.0899639-.2957001-.0974541-.3986406-.0409679-.1019993.0592175-.1651659.1845951-.1656704.3625507l-.0080442 2.8375187c-.0010147.3581047.2499504.7927914.5606422.9721699.155817.0899601.2966442.0990925.3995876.0415154.1019964-.0581207.165163-.1835003.1656733-.3636436l.0080442-2.8375187c.0010128-.35701-.2499533-.7916986-.5615921-.9716245z" fill="#4c5c75"/></g></g><g><g><path d="m14.639492 23.8770542-.0074396 2.8378983c-.0014896.1800594-.0639887.3035793-.1666718.3631077l-.4276323.2509232c.101202-.0595303.1651917-.1830406.1651917-.3631096l.0089283-2.8378983c0-.3571587-.2500076-.7916946-.5625238-.971756-.1547642-.0907822-.2946501-.0982227-.3988228-.0416718l.4291134-.2494316c.1026821-.0580406.242568-.0491123.3988218.0401745.3110266.180069.5625238.614605.5610351.9717636z" fill="#111d33"/></g></g><g><g><path d="m13.6498003 23.1561012c-.1558228-.0899658-.2956963-.098547-.3986397-.0409698-.1020002.0592136-.1651659.1845913-.1656704.3625526l-.0080442 2.8375187c-.0010157.3581009.2499495.7927914.5606422.972168.1558161.089962.2966433.0990944.3995867.0415154.1020002-.0592136.165163-.1834984.1656742-.3636436l.0080442-2.8375187c.0010119-.3570081-.2499532-.7916986-.561593-.9716226z" fill="#4c5c75"/></g></g></g></g><g><g><path d="m31.768507 19.3883286-5.0899658 8.7999878-.7399902-.4299927c-.1500244-.0900269-.25-.289978-.25-.5599976l-.0100098-4.4500122c0-.5499878.3800049-1.2099609.8599854-1.4899902l3.8800049-2.2399902c.2399902-.1400146.4500122-.1500244.6099854-.0599976z" fill="#5094ff"/></g><g><g><path d="m31.1530113 19.447504c.4771729-.2754955.8619461-.0510902.8635025.4971828l.0126076 4.4478989c.0015564.5483074-.3806915 1.2155533-.8578625 1.4910488l-3.879755 2.2399769c-.4771709.2754955-.8619461.0510902-.8635006-.4972172l-.0126095-4.4479008c-.0015545-.5482712.3806915-1.215517.8578644-1.4910126z" fill="#57b3fe"/></g></g><g><g><g><g><path d="m31.0977631 23.1383896c0 .4732895-.3330193 1.051754-.7450008 1.2884254l-2.0860672 1.2007961c-.4119282.2366714-.7450027.0525875-.7450027-.4294739 0-.3593407.1928043-.7713223.4645157-1.0605812.0263214-.420702.3243008-.920311.6924667-1.1306629.0438156-.0263195.0964031-.0525875.1489906-.0701332.1489887-.3505669.4119282-.6748676.7187347-.8501778.4820614-.2804852.8677235-.0525875.8677235.4996109v.0964012c.3768863-.1840838.6749191.0087739.6836395.4557954z" fill="#fff"/></g></g></g></g><g><path d="m23.5684948 33.2383041-5.0899658 8.8000489-.7399902-.4300537c-.1500244-.0899658-.25-.2799683-.25-.5499878l-.0100098-4.4599609c0-.5400391.3800049-1.210022.8599854-1.4900513l3.8800049-2.2399902c.2399902-.1300049.4500122-.1499634.6099854-.0599976z" fill="#566df9"/><g><path d="m19.0940075 41.9772148c-.4771576.275486-.8619308.0562325-.8634853-.4920731l-.0126247-4.4530106c-.0015545-.5483055.3807068-1.2155609.8578644-1.4910469l3.8797684-2.2399864c.4771576-.275486.8619461-.0510902.8635006.4972191l.0126247 4.4530067c.0015545.5483093-.380722 1.2104187-.8578796 1.4859047z" fill="#8fabfe"/></g></g><g><path d="m23.5385265 24.1383286-5.0800171 8.789978-.7399902-.4299927c-.1599731-.0899658-.25-.2799683-.25-.5499878l-.0100098-4.4500122c-.0100098-.5499878.3800049-1.2199707.8500366-1.4899902l3.8800049-2.2399902c.2399902-.1400146.4599609-.1500244.6099854-.0599976z" fill="#e93565"/></g><g><g><path d="m22.9297142 24.1952267c.4771576-.275486.8619461-.0510883.8635006.4971828l.0126095 4.4479008c.0015545.5483074-.3807068 1.2155609-.8578625 1.4910469l-3.8797703 2.2399845c-.4771557.2754898-.8619461.0510902-.8635006-.4972153l-.0126095-4.4479008c-.0015545-.5482731.3807068-1.2155266.8578644-1.4910126z" fill="#f45170"/></g></g><g><path d="m23.518507 15.0283432-5.0899658 8.789978-.7399902-.4299927c-.1500244-.0900269-.25-.2800293-.25-.5499878l-.0100098-4.4500122c0-.5499878.3800049-1.2200317.8599854-1.4899902l3.8800049-2.2399902c.2399902-.1400146.4500122-.1500244.6099854-.0599976z" fill="#7e5af2"/></g><g><g><path d="m22.9038849 15.0842123c.4771576-.2754869.8619461-.0510893.8635006.4972181l.0126247 4.4530087c.0015545.5483074-.380722 1.2104168-.8578796 1.4859047l-3.8797684 2.2399845c-.4771576.2754879-.8619308.0562344-.8634853-.4920731l-.0126247-4.4530087c-.0015545-.5483074.3807068-1.2155609.8578644-1.4910488z" fill="#b28afd"/></g></g><g><path d="m31.7885265 28.4983139-5.0800171 8.7900391-.7399902-.4300537c-.1599731-.0899658-.25-.2799683-.25-.5499878l-.0200195-4.4500122c0-.5499878.3800049-1.2199707.8600464-1.4899902l3.8800049-2.2399902c.2399902-.1400146.4599609-.1499634.6099854-.0599976z" fill="#dedffb"/></g><g><g><path d="m31.1788273 28.5533752c.4771729-.2754955.8619442-.0510902.8635006.4972172l.0126228 4.4530087c.0015564.5483093-.3807049 1.2104111-.8578777 1.4859047l-3.8797531 2.2399788c-.4771729.2754936-.8619308.0562325-.8634853-.4920769l-.0126247-4.4530067c-.0015545-.5483074.3806915-1.2155533.8578644-1.4910488z" fill="#f3f1fc"/></g></g><g><path d="m31.7385387 10.2783432-5.0900269 8.7999878-.7299805-.4299927c-.1600342-.0900269-.25-.2800293-.25-.5599976l-.0200195-4.4500122c0-.5499878.3800049-1.2200317.8599854-1.4899902l3.8800049-2.2399902c.2400513-.1400146.460022-.1500244.6100464-.0599976z" fill="#febc1f"/></g><g><g><path d="m31.127182 10.3364897c.4771729-.2754955.8619461-.0510902.8635006.4972172l.0126247 4.4530087c.0015526.5483074-.3807068 1.2104082-.8578777 1.4859037l-3.879755 2.2399788c-.4771729.2754955-.8619308.0562325-.8634853-.492075l-.0126247-4.4530087c-.0015545-.5483074.3806915-1.2155523.8578644-1.4910479z" fill="#ffd06c"/></g></g><g><g><g><path d="m29.2432518 31.0040035c.9046669-.5223103 1.6462955-.1032867 1.64925.938652.0029526 1.0419369-.7338791 2.314558-1.638546 2.8368702-.905714.5229111-1.6473408.1038818-1.6502953-.9380569s.7338773-2.3145523 1.6395913-2.8374653z" fill="#f45170"/></g></g><g><g><path d="m28.7039623 32.2315788 1.4309559.1475754-1.4254398 1.7979317z" fill="#fff"/></g></g></g><g><g><g><path d="m20.0324612 27.9372864c.0557079-.0321636.111187-.0370445.1506596-.0055351.0723553.0536556.065567.202774-.0207062.3355503l-.7548046 1.186655.7626495.3064156c.0831375.034996.0943527.1737194.0225487.3147125-.0394955.0767365-.0971012.1348934-.1547642.1681843-.0432529.0249729-.0901585.0354557-.1299133.0210743l-.9361572-.3846111c-.0433826-.020586-.0687981-.0681458-.068985-.1344318-.0002003-.0703888.0248623-.1470909.0679989-.2134933l.9309196-1.4625683c.0375747-.0594198.0841484-.1051599.1305542-.1319524z" fill="#fff"/></g></g><g><g><path d="m21.6636868 26.2462635c.0284519-.016428.0574131-.0261707.0850639-.0273933.1010704-.0044193.1447105.1072845.0981808.2503128l-1.3313713 4.1123886c-.0357971.107769-.1077538.1949463-.1834431.2386475l-.082962.0271626c-.1010685.0085545-.144722-.1072769-.0981789-.2461491l1.3313599-4.116518c.0338115-.1039239.1057701-.1948148.1813507-.2384511z" fill="#fff"/></g></g><g><g><path d="m21.9573383 26.8259583c.0472374-.0272732.0946503-.0357971.1324501-.0198936l.9361572.3846111c.0433712.0164566.0687733.064024.0689735.1344109.0001869.066288-.0248623.1429825-.0679874.2135143l-.9345264 1.4646492c-.0359478.0580902-.0827484.1017075-.1296082.1287632-.0576744.0332985-.1118031.03965-.1516151.0087032-.0723686-.0577564-.0619621-.2089634.0207043-.3396854l.7548065-1.1825199-.7590446-.3126316c-.0831375-.0349674-.0943642-.1736851-.0225487-.3105774.0391636-.0769101.0955772-.1366311.1522388-.169344z" fill="#fff"/></g></g></g></g><g><path d="m33.0097389 39.3183212c0 .5-.3499756 1.1300049-.7800293 1.3800049l-15.8999615 9.1799927c-.1099854.0599976-.2300415.1000366-.3099976.1000366-.250001 0-.2800303-.2900391-.2800303-.4200439l-.0100098-2.75 17.2700195-9.9699707z" fill="#4c5c75"/></g><g><g><path d="m25.2289772 42.5480385c.4843216-.2796211.8841953-.0615997.8857727.4949417.001606.5663567-.3957272 1.2446823-.8800488 1.5243034l-1.8044205 1.0417824c-.4843216.2796249-.8841953.0615692-.8858013-.5047913-.0015774-.5565376.3957558-1.2348289.8800774-1.5144501z" fill="#9ea9c9"/></g></g></g><g><g><path d="m22.6766548 18.7420979-.3450966.2693882c-.0313282.1847897-.0882893.3731899-.163826.5590992l.2005081.2125473-.3135433.5430794-.0623226.1079445-.0164146-.0037041-.2694817-.0609379c-.1216221.1576233-.2592106.3010826-.4039268.4242821l-.059824.4309502-.5289917.3054142-.0620537-.3605843c-.1467094.0450554-.2802429.0581264-.4067783.0437794l-.1369801.1896496-.1011143.1399918-.0465012.064373-.3765545-.2166119.1995392-.4435158c-.0435028-.0550365-.0805626-.1179829-.1108875-.188652-.0104141-.0242615-.02001-.0494671-.0288315-.0755615-.0110703-.0328121-.0208988-.0670071-.0293846-.1026688l-.3428555.1278-.0015316-.5398102-.0001945-.0690422.0479927-.0378284.2944584-.2320442c.033968-.1863117.0900517-.3742046.1664753-.5606289l-.2013988-.2130489.3741016-.6479702.1045055.0232391.0687523.0153103.1126347.0250759c.1260395-.1611938.2592125-.3011112.4056969-.4253044l.0598106-.4309464.5289898-.3054123.0620708.3605785c.1449394-.0440598.2828865-.0606747.4050064-.0427551l.2819462-.3893452.0636272.030735.3173447.1791706-.1986485.4440174c.0763416.0982227.1341839.2203407.1682167.3673935l.05476-.0201149.0921059-.0338497.1968727-.0723362zm-1.7010708 1.5421695c.4141788-.2391243.7513199-.8210335.7499619-1.3000107-.0013523-.4769421-.3406925-.6703205-.7548695-.4311943-.4177246.2411728-.7522011.8235798-.7508507 1.3005219.0013581.4789772.3380337.6718578.7557583.4306831" fill="#fff"/></g></g></g><g><g><g><g><g><g><g enable-background="new"><g><g><path d="m10.0419941 14.4536371-1.3294945-.7726183-.9755859-1.2744112 1.8282766-.0563211z" fill="#5ec363"/></g></g><g><g><path d="m13.8485231 3.4283063-6.9999995 10.720032-.9699707-.5599976c-.1000366-.0599976-.1600342-.1600342-.1900024-.3099976-.3400269-1.9200439-.5599976-3.8400269-.6700439-5.2700195-.0299683-.4000243.2300414-.9500121.6400146-1.2199706 2.1699829-1.4200439 4.440002-2.7300415 6.7600093-3.9100344.1799927-.0899658.3399658-.0899658.4500122-.0200195z" fill="#72d561"/></g></g><g><g><path d="m10.016407 5.2758102c1.1275892-.6510139 2.2553005-1.2607622 3.3833456-1.8293672.3820429-.1918602.6704512.0238035.6424437.4786079-.1236086 1.9902532-.3350525 4.0004911-.6343298 6.0297728-.0583525.3901358-.3182526.8085108-.6347818 1.0090933-.5909033.3758059-1.1783953.7387648-1.76334 1.0893478l-.9677505 2.4003725-.9755859-1.2744112c-.591032.330328-1.1778011.6453285-1.7611618.9464903-.3192196.1625195-.5823569.0471144-.6410146-.2784472-.3055654-1.7077942-.530273-3.4652529-.6680999-5.2748327-.0313511-.4205341.254889-.9699588.6376266-1.2196445 1.1275768-.733679 2.2550544-1.4259646 3.3826484-2.0769818z" fill="#78e75a"/></g></g></g></g></g></g></g></g><g><g enable-background="new"><g><g><path d="m11.5787201 8.3400364c-.137125-.1090746-.3324242-.0914164-.5817375.0519409-.2482796.1433582-.4435778.3511219-.5796633.6181002-.1350451.2659378-.2025709.5474596-.2015314.8362484 0 .289835.0695992.4913607.2056847.6004419.137125.1090746.3324242.0914164.5817432-.0519419.2482729-.1433573.443572-.3521614.5796566-.6180992.1340122-.2659378.2025719-.5464201.2015314-.8362484-.0010395-.2887954-.0706387-.4913664-.2056837-.6004419zm-.893383 1.6839304c-.0747986-.0727186-.114274-.2015314-.114274-.3833246-.0010405-.1807537.0373955-.3532019.1121941-.5121384.0747919-.1589422.1807537-.2784023.3147593-.3552809.1340122-.0779114.2399673-.0810242.3158054-.009346.0758324.0727186.1142683.2004919.1153078.3812456 0 .1817932-.0373964.3552752-.1132345.5142174-.0737524.1568632-.1797132.2773628-.3137188.3552742-.1350461.0779123-.2410079.0799913-.3168393.0093527z" fill="#fff"/></g></g><g><g><path d="m11.1694241 6.433804c0 .0425887-.011425.0924563-.0342827.1475105l-1.9363623 4.7058549c-.0166187.0405159-.0384359.0789509-.0654402.1132345-.02701.0353165-.0560999.0612869-.0862236.0789509-.0436287.0259705-.0841446.0301237-.1173868.013505-.0342836-.017664-.0509014-.0550604-.0509014-.1090813 0-.0353155.0072727-.0727119.02493-.1142673l1.9498682-4.7359848c.0332365-.0820642.0810251-.1412778.1423178-.1765943.0509014-.0290899.0914164-.0363626.1246538-.0238972.0322094.0124656.0488272.0457087.0488272.1007691z" fill="#fff"/></g></g><g><g><path d="m9.6163864 7.3936729c-.1360845-.1101145-.3324232-.0924563-.580697.050901-.2493191.1443977-.4446183.3521619-.5796633.6191392-.1350451.2659378-.2036114.546421-.2025709.8352098.0010395.2898283.0706387.4913597.2067242.6014748.1360854.1090803.3324231.0914163.5807027-.0529747.2493134-.1433582.4446125-.3511219.5796642-.6170597.1350451-.2659378.2036047-.5474606.2025643-.8372889-.0010395-.2887955-.0695992-.4903264-.2067242-.5994015zm-.8923426 1.68289c-.0758381-.0727186-.114274-.200491-.1153145-.3822851 0-.1817932.0374031-.3542414.1132345-.5131769.0737591-.1579027.1797142-.27737.3147593-.3552814.1340123-.0779119.2410069-.0810247.3158055-.009346.0758324.0727186.1142673.2004914.1142673.3822856.0010405.1817932-.0373955.3542347-.1111545.5131769-.0747919.1579027-.1807537.2773638-.3157988.3552752s-.2410068.0810308-.3157988.0093517z" fill="#fff"/></g></g></g></g></g><g><g><g><g enable-background="new"><g><path d="m47.64851 4.0683212-11.2999878 14.9100342-1.1599731-.6800537c-.2000122-.1199951-.3300171-.3599854-.3300171-.6999512l-.0200195-6.6000366c0-.7000122.5-1.5499878 1.1000366-1.8999634l9.75-5.6300049c.3099976-.1799927.5899658-.1900024.789978-.0800171z" fill="#bf7d5a"/></g><g><g><path d="m46.8527145 4.147543c.6124878-.3536201 1.1104393-.0698524 1.1124001.6218147l.0187149 6.601162c.0019608.6916666-.4927559 1.5485535-1.1052437 1.902173l-9.7489357 5.6285505c-.6019325.3475266-1.099884.0637589-1.1018448-.6279087l-.0187149-6.601162c-.0019608-.6916666.4927559-1.5485525 1.0946884-1.8960791z" fill="#dba660"/></g><g><path d="m36.6413994 18.5974827c-.1395683 0-.1607666-.2036114-.1612091-.3255119l-.0189934-6.6011972c-.0013237-.5326538.4045715-1.2349091.8687668-1.5030031l9.7489777-5.6286402c.1382446-.0799422.2305527-.0918674.272953-.0918674.1391258 0 .1603241.2022848.1607666.3233023l.0189934 6.6011982c.0013237.5326538-.4094276 1.2379999-.879364 1.5091858l-9.7489815 5.6286411c-.1324997.0764082-.2208329.0878924-.2619095.0878924z" fill="#fff"/></g></g></g></g><g><g><g><path d="m41.8700867 9.4909296 5.0317268-2.9050755-.0018806-.6721235-5.0298462 2.9039898z" fill="#e3e7f0"/></g></g><g><g><path d="m41.8700867 11.0183048 5.0360717-2.9075374-.0019531-.6721235-5.0341186 2.9064508z" fill="#e3e7f0"/></g></g><g><g><path d="m41.8700867 14.0729818 2.8108253-1.6228199-.0018844-.6721229-2.8089409 1.6217336z" fill="#e3e7f0"/></g></g><g><g><path d="m41.8700867 12.5456066 5.0403442-2.9100714-.0018806-.6721229-5.0384636 2.9089851z" fill="#e3e7f0"/></g></g></g></g><g><g><g><g><path d="m39.2743835 13.246809 1.8746605-1.0809174c-.0426369 1.1951923-.8787956 2.6107206-1.9029312 3.2030697-.4820023.278285-.9371376.3359051-1.2925339.165925z" fill="#78e75a"/></g></g></g><g><g><g><path d="m39.3163071 10.9293661c.4786758-.2532921.9280128-.2869768 1.270504-.0918016.3437271.1955261.5413132.595396.5616875 1.1355581l-1.8262444 1.0543814z" fill="#df3260"/></g></g></g><g><g><g><path d="m39.1497765 11.0240927.0061111 2.1551886-1.3208046 2.2880793c-.323719-.2195024-.5034447-.639267-.5050278-1.1984396-.00457-1.1761018.8052864-2.6090966 1.8197213-3.2448283z" fill="#986ff9"/></g></g></g></g></g><g><g><g><g><g><path d="m47.4185295 44.118309v1.4700317c0 .2999878-.1900024.6099854-.6000366.8399658l-6.3999634 3.7200317c-.8099976.4699707-2.1099854.4699707-2.9299927 0l-6.4500103-3.7200317c-.4000244-.2299805-.6099854-.5499878-.6099854-.8499756l.0100098-1.4700317z" fill="#dedffb"/></g></g></g><g><g><g><path d="m46.8160248 43.2647629c.8083954.4667282.8126602 1.2231522.0095215 1.6898842l-6.4112434 3.7258072c-.8031349.466732-2.1090355.4667358-2.9174309.0000076l-6.4531746-3.7257423c-.8083954-.4667282-.8126583-1.2231522-.0095234-1.6898842l6.4112453-3.7258072c.8031349-.466732 2.1090355-.4667358 2.9174309-.0000076z" fill="#f3f1fc"/></g></g></g></g><path d="m43.8485222 43.0283432-.8900146-.0700073v-1.2000122l-1.2199707-.710022-1.1900024.5300293c-.2600098-.0900269-.5400391-.1699829-.8300171-.2200317l-.1599731-.8299561h-1.7400513l-.1699829.789978c-.3399658.039978-.6699829.1199951-.9599609.2200317l-1.0599976-.4900513-1.2300415.710022v1.2000122l.0100098.0100098-.9199829.0599976-.0100098 1.0100098v.8199463l1.3699951.0900269-.4699707.3499756v.8200073l1.2199707.7200317 1.2700195-.5800171c.2399902.0700073.4699707.1199951.7199707.1500244l.1900024.9499512h1.7399902l.210022-.9899902c.210022-.039978.4199829-.0899658.6099854-.1599731l1.3699951.6300049 1.2300415-.7200317v-.8200073l-.4700317-.3399658 1.3800049-.1099854v-1.8200075zm-3.5900269 1.4299927c-.8799438.5100098-2.3099976.5100098-3.1900024 0-.2099609-.1199951-.3599854-.2600098-.4699707-.4100342.1099854-.1499634.2700195-.289978.4799805-.4099731.8800049-.5100098 2.3099976-.5100098 3.1900024 0 .2000122.1199951.3600464.2600098.4700317.4000244-.1099853.1499633-.2700195.289978-.4800415.4199829z" fill="#dba660"/><g><g><g><g><g><path d="m34.3961067 41.7615013.0033989 1.1997719.830143.6185036-.0034027-1.1997719z" fill="#aa6256"/></g></g></g></g><g><g><g><g><path d="m41.9601402 42.493969.0034027 1.1997718.9969864-.7324371-.0033989-1.1997719z" fill="#aa6256"/></g></g></g></g><g><g><g><path d="m36.4123383 43.5367661.0029182 1.0290146c-.0009537-.3366089.2208481-.6737289.6649475-.93013.8825378-.5095329 2.3084526-.5071983 3.1852417.0023346.4365807.2537155.6556206.5858803.6565628.9183693l-.0029144-1.0290031c-.000946-.3324966-.219986-.6646614-.6565666-.9183731-.8767891-.5095367-2.3027039-.5118713-3.1852417-.0023384-.4440956.2564009-.6659012.593521-.6649475.9301261z" fill="#bf7d5a"/></g></g></g><g><g><g><g><path d="m43.8435402 44.0293808.0033989.823864.0056496-.6278-.0033989-1.1997719z" fill="#d4d6d6"/></g></g></g></g><g><g><g><g><path d="m33.4794121 44.0374756.0034027.8238678 1.4372253.0949516-.0033989-.823864z" fill="#aa6256"/></g></g></g></g><g><g><g><g><path d="m42.1287613 44.1541557.0034027.8238678 1.7147751-.1247787-.0033989-.823864z" fill="#aa6256"/></g></g></g></g><g><g><g><g><path d="m41.8645248 44.5068169.0034065 1.1997833c.108326-.1112404.2026749-.2306061.2642326-.3526726l-.0033913-1.1997643c-.0615691.1220589-.155918.2414246-.2642478.3526536z" fill="#bf7d5a"/></g></g></g></g><g><g><g><g><path d="m34.9166412 44.132431.0034065 1.1997795c.088028.170887.2182732.3282242.3813171.4828491l-.0033989-1.1997604c-.1630477-.1546364-.2932929-.3119774-.3813247-.4828682z" fill="#bf7d5a"/></g></g></g></g><g><g><g><g><path d="m39.7278099 45.5403481.0034027.8238716c.2109299-.0352631.4173126-.0895233.6096916-.1519089l-.0033989-.8238678c-.1923828.0623856-.3987617.1166458-.6096954.1519051z" fill="#bf7d5a"/></g></g></g></g><g><g><g><g><path d="m36.8622322 45.4372482.0034027.8238754c.2384758.0678215.4770203.1193542.7250633.1491966l-.0034027-.8238602c-.248043-.0298499-.4865875-.0813826-.7250633-.1492118z" fill="#bf7d5a"/></g></g></g></g><g><g><g><g><path d="m34.376194 45.2988892.0034027.8238678 1.2230148.7107391-.0034027-.8238678z" fill="#bf7d5a"/></g></g></g></g><g><g><g><g><path d="m35.5992088 46.0096283.0034027.8238678 1.2630196-.5723801-.0033989-.8238678z" fill="#aa6256"/></g></g></g></g><g><g><g><g><path d="m41.7061882 46.009655.0034027.8238678 1.2310181-.7107277-.0034027-.8238678z" fill="#bf7d5a"/></g></g></g></g><g><g><g><path d="m40.3375015 45.388443.0034027.8238678 1.3686867.621212-.0034027-.8238678z" fill="#aa6256"/></g></g></g><g><g><g><g><path d="m37.5872955 45.5864525.0034027.8238678.1866723.9467468-.0034028-.823864z" fill="#aa6256"/></g></g></g></g><g><g><g><g><path d="m39.5114899 46.5304909.0034027.823864.21632-.9901429-.0034027-.8238639z" fill="#aa6256"/></g></g></g></g><g><g><g><path d="m34.376194 45.2988892.9217682-.6836014c-.163044-.1546249-.2932892-.3119659-.381321-.4828568l-1.4372292-.0949554.0056915-1.00914 1.3633804-.0949287c.071331-.1926041.2035179-.3824997.3777618-.5534019l-.8301392-.6185036 1.2310143-.7107277 1.0603676.4855804c.2956009-.1003609.6238823-.1763153.9566231-.2170067l.1730423-.7921219 1.7374763.0027237.1639137.830101c.2947807.0515289.5706673.1247787.8323822.2224388l1.1831894-.5316963 1.2230148.7107391-.9969902.7324371c.1210136.1356468.2045059.2766991.2599106.4177628l1.6291389.1139412-.0056496 1.0037079-1.7147789.1247749c-.0615578.1220665-.1559067.2414322-.2642365.3526611l1.0726814.7921104-1.2310181.7107277-1.3686867-.621212c-.192379.0623856-.3987579.1166458-.6096916.1519051l-.21632.9901428-1.7375221.0027122-.1866722-.9467506c-.2480431-.0298424-.4865875-.0813751-.7250633-.1492043l-1.2630234.5723801zm5.8799667-.8448868c.8825378-.5095329.8831558-1.3354912.0063667-1.8450241-.8767891-.5095367-2.3027039-.5118713-3.1852417-.0023384-.882515.5095215-.887188 1.3378067-.0103989 1.8473396.876793.5095367 2.306759.5095406 3.1892739.0000229" fill="#dba660"/></g></g></g><g><g><g><g><path d="m37.7739677 46.5332031.0034028.823864 1.7375221-.0027122-.0034027-.823864z" fill="#bf7d5a"/></g></g></g></g></g></g></g></svg>